<svg xmlns="http://www.w3.org/2000/svg" viewBox="0 0 1200 800" role="img" aria-labelledby="title desc">
  <title id="title">Illustration af fræsemaskine</title>
  <desc id="desc">Industriel illustration af en fræser til metalproduktion.</desc>
  <defs><linearGradient id="bg" x1="0" y1="0" x2="1" y2="1"><stop offset="0" stop-color="#2b3027"/><stop offset="1" stop-color="#11130f"/></linearGradient></defs>
  <rect width="1200" height="800" fill="url(#bg)"/><rect y="635" width="1200" height="165" fill="#171a15"/>
  <g opacity=".12" stroke="#d8ff4f" stroke-width="3"><path d="M70 120h1060M70 280h1060M70 440h1060"/><path d="M190 60v520M390 60v520M590 60v520M790 60v520M990 60v520"/></g>
  <g transform="translate(260 105)">
    <path d="M165 500h470l55 105H110z" fill="#343b31"/>
    <rect x="245" y="86" width="280" height="425" rx="28" fill="#4b5446" stroke="#899481" stroke-width="6"/>
    <rect x="180" y="110" width="410" height="116" rx="22" fill="#5c6655"/>
    <rect x="320" y="205" width="130" height="180" rx="20" fill="#2a3027"/>
    <rect x="356" y="235" width="58" height="215" rx="20" fill="#c2c9b8"/>
    <rect x="143" y="398" width="493" height="55" rx="13" fill="#9aa58f"/>
    <rect x="205" y="437" width="365" height="55" rx="12" fill="#3d4539"/>
    <circle cx="532" cy="280" r="38" fill="#1c211a" stroke="#d8ff4f" stroke-width="7"/>
    <path d="M532 244v72M496 280h72" stroke="#d8ff4f" stroke-width="6"/>
    <rect x="215" y="135" width="82" height="24" rx="8" fill="#d8ff4f"/>
    <circle cx="279" cy="346" r="12" fill="#d8ff4f"/>
  </g>
  <text x="72" y="716" fill="#f4f0e7" font-family="Arial, sans-serif" font-size="34" font-weight="700" letter-spacing="4">INDUSTRIMASKINE</text>
</svg>